<svg width="48" height="48" viewBox="0 0 48 48" fill="none" xmlns="http://www.w3.org/2000/svg">
<path fill-rule="evenodd" clip-rule="evenodd" d="M32.5 1C33.3284 1 34 1.67157 34 2.5V9.5H41.5C42.3284 9.5 43 10.1716 43 11C43 11.8284 42.3284 12.5 41.5 12.5H32.5C31.6716 12.5 31 11.8284 31 11V2.5C31 1.67157 31.6716 1 32.5 1Z" fill="#1B344B"/>
<path fill-rule="evenodd" clip-rule="evenodd" d="M47.2486 16.3498C47.8839 16.8816 47.9678 17.8276 47.4361 18.4628L32.0901 36.7962C31.792 37.1523 31.3457 37.3503 30.8817 37.3322C30.4176 37.3142 29.9881 37.0823 29.7185 36.7041L22.2787 26.2689C21.7978 25.5943 21.9548 24.6576 22.6293 24.1767C23.3039 23.6958 24.2406 23.8528 24.7215 24.5273L31.0349 33.3828L45.1356 16.5372C45.6673 15.902 46.6134 15.8181 47.2486 16.3498Z" fill="#1B344B"/>
<path fill-rule="evenodd" clip-rule="evenodd" d="M41 48C42.6569 48 44 46.6569 44 45V27.242L41 30.826V45H3V3H33L41 11.5V16.8044L42.8354 14.6117C43.1744 14.2067 43.5696 13.8764 44 13.6226V11.5C44 10.7358 43.7084 10.0004 43.1846 9.44391L35.1846 0.943906C34.6177 0.341546 33.8272 0 33 0H3C1.34315 0 0 1.34315 0 3V45C0 46.6569 1.34315 48 3 48H41ZM44 17.8943L41 21.4783V26.1521L44 22.5681V17.8943Z" fill="#1B344B"/>
</svg>
